<?xml version="1.0" standalone="no"?>
<!DOCTYPE svg PUBLIC "-//W3C//DTD SVG 20010904//EN"
 "http://www.w3.org/TR/2001/REC-SVG-20010904/DTD/svg10.dtd">
<svg version="1.0" xmlns="http://www.w3.org/2000/svg"
 width="240.000000pt" height="272.000000pt" viewBox="0 0 240.000000 272.000000"
 preserveAspectRatio="xMidYMid meet">
<metadata>
Created by potrace 1.15, written by Peter Selinger 2001-2017
</metadata>
<g transform="translate(0.000000,272.000000) scale(0.100000,-0.100000)"
fill="#000000" stroke="none">
<path d="M0 1360 l0 -1360 1200 0 1200 0 0 1360 0 1360 -1200 0 -1200 0 0
-1360z m1205 1118 c247 -29 373 -94 549 -286 l30 -32 -37 0 c-28 0 -42 7 -60
27 -12 15 -53 61 -92 101 -69 72 -71 72 -150 89 -112 23 -541 23 -750 0 -204
-23 -305 -38 -305 -46 0 -3 23 -73 51 -156 45 -135 146 -480 179 -612 15 -59
4 -57 139 -24 l65 16 -3 60 c-8 192 100 386 253 459 60 28 63 33 44 58 -12 15
-25 15 -158 -3 -80 -10 -146 -19 -146 -19 -7 -1 -53 134 -49 139 12 12 232 30
446 37 l216 7 37 -54 c20 -29 36 -57 36 -61 0 -5 -38 -8 -84 -8 -90 0 -146 -8
-146 -21 0 -18 34 -39 65 -39 44 0 150 -39 222 -81 75 -45 202 -171 239 -237
l29 -53 50 7 c28 3 51 8 53 9 4 3 -105 225 -119 241 -14 17 -3 21 43 15 42 -6
44 -7 95 -101 82 -148 147 -312 201 -508 l21 -73 -25 -9 c-54 -21 -74 -23 -74
-7 0 22 -70 261 -80 270 -4 5 -29 5 -55 2 l-47 -8 7 -76 c16 -187 -71 -379
-215 -471 -44 -28 -49 -35 -44 -59 4 -14 8 -27 9 -29 2 -2 59 14 126 36 143
45 133 49 144 -66 l7 -70 -213 -70 c-257 -85 -497 -155 -508 -148 -8 5 -36
175 -30 180 2 2 49 16 103 30 199 53 206 55 206 79 0 35 -12 42 -72 43 -141 3
-265 60 -378 173 -53 54 -87 99 -115 154 -22 42 -44 75 -50 73 -5 -2 -47 -11
-92 -21 -49 -11 -83 -23 -83 -30 0 -7 20 -102 45 -211 45 -197 112 -522 136
-662 10 -58 15 -71 28 -68 9 3 68 19 131 36 521 140 1110 352 1110 399 0 35
-20 247 -25 269 -5 19 1 25 37 41 24 10 46 16 50 12 12 -11 29 -323 21 -386
l-8 -59 -130 -68 c-162 -84 -379 -171 -645 -258 -218 -72 -698 -205 -706 -197
-3 3 -30 128 -60 278 -132 658 -322 1432 -460 1871 -18 60 -34 113 -34 118 0
10 84 24 265 45 281 33 554 38 760 13z"/>
<path d="M1350 2003 c0 -3 20 -55 44 -116 24 -62 50 -131 57 -155 11 -39 15
-43 38 -38 14 3 74 13 134 22 59 10 107 22 107 27 0 17 -71 106 -117 147 -56
49 -151 97 -215 109 -27 4 -48 6 -48 4z"/>
<path d="M1109 1952 c-93 -60 -148 -159 -157 -285 l-5 -80 24 6 c13 4 85 18
159 33 74 14 140 27 147 29 11 4 -12 82 -87 293 -15 39 -24 40 -81 4z"/>
<path d="M1667 1520 c-70 -15 -129 -29 -131 -31 -9 -9 80 -349 91 -349 22 0
111 99 138 154 32 65 52 182 39 224 l-9 29 -128 -27z"/>
<path d="M1168 1413 l-158 -36 28 -50 c66 -123 197 -213 345 -236 58 -10 58
-14 17 157 -45 187 -50 202 -63 201 -7 -1 -83 -17 -169 -36z"/>
</g>
</svg>
